HIERARCHY
ROOT Hips
{
	OFFSET 0.000000 97.167313 0.000000
	CHANNELS 6 Xposition Yposition Zposition Xrotation Yrotation Zrotation
	JOINT Spine
	{
		OFFSET 0.000000 13.784798 0.064400
		CHANNELS 3 Xrotation Yrotation Zrotation
		JOINT Spine1
		{
			OFFSET 0.000000 12.037903 0.404700
			CHANNELS 3 Xrotation Yrotation Zrotation
			JOINT Spine2
			{
				OFFSET 0.000000 17.795601 0.420200
				CHANNELS 3 Xrotation Yrotation Zrotation
				JOINT Neck
				{
					OFFSET 0.000000 39.131302 11.954600
					CHANNELS 3 Xrotation Yrotation Zrotation
					JOINT Head
					{
						OFFSET 0.000000 14.456192 15.627699
						CHANNELS 3 Xrotation Yrotation Zrotation
						JOINT HeadTop_End
						{
							OFFSET 0.000000 15.703506 7.603401
							CHANNELS 3 Xrotation Yrotation Zrotation
							End Site
							{
								OFFSET 0.000000 17.447403 0.000000
							}
						}
					}
				}
				JOINT LeftShoulder
				{
					OFFSET 17.399500 24.608795 1.168800
					CHANNELS 3 Xrotation Yrotation Zrotation
					JOINT LeftArm
					{
						OFFSET 18.980635 5.765305 1.818600
						CHANNELS 3 Xrotation Yrotation Zrotation
						JOINT LeftForeArm
						{
							OFFSET 49.290169 0.000000 0.000000
							CHANNELS 3 Xrotation Yrotation Zrotation
							JOINT LeftHand
							{
								OFFSET 31.562012 0.000000 0.000000
								CHANNELS 3 Xrotation Yrotation Zrotation
								JOINT LeftHandThumb1
								{
									OFFSET 6.133995 -4.388519 7.076070
									CHANNELS 3 Xrotation Yrotation Zrotation
									JOINT LeftHandThumb2
									{
										OFFSET 6.037666 -3.485840 3.485847
										CHANNELS 3 Xrotation Yrotation Zrotation
										JOINT LeftHandThumb3
										{
											OFFSET 6.496506 -3.750763 3.750761
											CHANNELS 3 Xrotation Yrotation Zrotation
											JOINT LeftHandThumb4
											{
												OFFSET 5.616882 -3.242905 3.242910
												CHANNELS 3 Xrotation Yrotation Zrotation
												End Site
												{
													OFFSET -1.254608 7.132141 0.375429
												}
											}
										}
									}
								}
								JOINT LeftHandPinky1
								{
									OFFSET 18.920792 -0.453171 -11.426712
									CHANNELS 3 Xrotation Yrotation Zrotation
									JOINT LeftHandPinky2
									{
										OFFSET 4.919586 0.000000 0.000000
										CHANNELS 3 Xrotation Yrotation Zrotation
										JOINT LeftHandPinky3
										{
											OFFSET 5.233047 0.000000 0.000000
											CHANNELS 3 Xrotation Yrotation Zrotation
											JOINT LeftHandPinky4
											{
												OFFSET 5.571716 0.000000 0.000000
												CHANNELS 3 Xrotation Yrotation Zrotation
												End Site
												{
													OFFSET -3.459808 4.342407 -0.466164
												}
											}
										}
									}
								}
								JOINT LeftHandRing1
								{
									OFFSET 22.726120 -0.094986 -6.500475
									CHANNELS 3 Xrotation Yrotation Zrotation
									JOINT LeftHandRing2
									{
										OFFSET 6.408615 0.000000 0.000000
										CHANNELS 3 Xrotation Yrotation Zrotation
										JOINT LeftHandRing3
										{
											OFFSET 6.150223 0.000000 0.000000
											CHANNELS 3 Xrotation Yrotation Zrotation
											JOINT LeftHandRing4
											{
												OFFSET 6.145386 0.000000 0.000000
												CHANNELS 3 Xrotation Yrotation Zrotation
												End Site
												{
													OFFSET -3.671402 4.923981 -0.202372
												}
											}
										}
									}
								}
								JOINT LeftHandMiddle1
								{
									OFFSET 23.373947 0.000000 0.000001
									CHANNELS 3 Xrotation Yrotation Zrotation
									JOINT LeftHandMiddle2
									{
										OFFSET 6.996567 0.000000 0.000000
										CHANNELS 3 Xrotation Yrotation Zrotation
										JOINT LeftHandMiddle3
										{
											OFFSET 7.015945 0.000000 0.000000
											CHANNELS 3 Xrotation Yrotation Zrotation
											JOINT LeftHandMiddle4
											{
												OFFSET 7.721573 0.000000 0.000000
												CHANNELS 3 Xrotation Yrotation Zrotation
												End Site
												{
													OFFSET -4.651108 6.158463 0.251582
												}
											}
										}
									}
								}
								JOINT LeftHandIndex1
								{
									OFFSET 21.310577 -0.490082 6.209344
									CHANNELS 3 Xrotation Yrotation Zrotation
									JOINT LeftHandIndex2
									{
										OFFSET 7.536453 0.000000 0.000000
										CHANNELS 3 Xrotation Yrotation Zrotation
										JOINT LeftHandIndex3
										{
											OFFSET 7.512344 0.000000 0.000000
											CHANNELS 3 Xrotation Yrotation Zrotation
											JOINT LeftHandIndex4
											{
												OFFSET 10.212402 0.000000 0.000001
												CHANNELS 3 Xrotation Yrotation Zrotation
												End Site
												{
													OFFSET -5.180801 8.690506 1.388433
												}
											}
										}
									}
								}
							}
						}
					}
				}
				JOINT RightShoulder
				{
					OFFSET -17.399500 24.608795 1.168800
					CHANNELS 3 Xrotation Yrotation Zrotation
					JOINT RightArm
					{
						OFFSET -18.980635 5.765305 1.818600
						CHANNELS 3 Xrotation Yrotation Zrotation
						JOINT RightForeArm
						{
							OFFSET -49.290169 0.000000 0.000000
							CHANNELS 3 Xrotation Yrotation Zrotation
							JOINT RightHand
							{
								OFFSET -31.562012 0.000000 0.000000
								CHANNELS 3 Xrotation Yrotation Zrotation
								JOINT RightHandThumb1
								{
									OFFSET -6.133995 -4.388519 7.076070
									CHANNELS 3 Xrotation Yrotation Zrotation
									JOINT RightHandThumb2
									{
										OFFSET -6.037666 -3.485840 3.485847
										CHANNELS 3 Xrotation Yrotation Zrotation
										JOINT RightHandThumb3
										{
											OFFSET -6.496506 -3.750763 3.750761
											CHANNELS 3 Xrotation Yrotation Zrotation
											JOINT RightHandThumb4
											{
												OFFSET -5.616882 -3.242905 3.242910
												CHANNELS 3 Xrotation Yrotation Zrotation
												End Site
												{
													OFFSET 1.254608 7.132141 0.375429
												}
											}
										}
									}
								}
								JOINT RightHandIndex1
								{
									OFFSET -21.310577 -0.490082 6.209344
									CHANNELS 3 Xrotation Yrotation Zrotation
									JOINT RightHandIndex2
									{
										OFFSET -7.536453 0.000000 0.000000
										CHANNELS 3 Xrotation Yrotation Zrotation
										JOINT RightHandIndex3
										{
											OFFSET -7.512344 0.000000 0.000000
											CHANNELS 3 Xrotation Yrotation Zrotation
											JOINT RightHandIndex4
											{
												OFFSET -10.212402 0.000000 0.000001
												CHANNELS 3 Xrotation Yrotation Zrotation
												End Site
												{
													OFFSET 5.180801 8.690506 1.388433
												}
											}
										}
									}
								}
								JOINT RightHandMiddle1
								{
									OFFSET -23.373947 0.000000 0.000001
									CHANNELS 3 Xrotation Yrotation Zrotation
									JOINT RightHandMiddle2
									{
										OFFSET -6.996567 0.000000 0.000000
										CHANNELS 3 Xrotation Yrotation Zrotation
										JOINT RightHandMiddle3
										{
											OFFSET -7.015945 0.000000 0.000000
											CHANNELS 3 Xrotation Yrotation Zrotation
											JOINT RightHandMiddle4
											{
												OFFSET -7.721573 0.000000 0.000000
												CHANNELS 3 Xrotation Yrotation Zrotation
												End Site
												{
													OFFSET 4.651108 6.158463 0.251582
												}
											}
										}
									}
								}
								JOINT RightHandRing1
								{
									OFFSET -22.726120 -0.094986 -6.500475
									CHANNELS 3 Xrotation Yrotation Zrotation
									JOINT RightHandRing2
									{
										OFFSET -6.408615 0.000000 0.000000
										CHANNELS 3 Xrotation Yrotation Zrotation
										JOINT RightHandRing3
										{
											OFFSET -6.150223 0.000000 0.000000
											CHANNELS 3 Xrotation Yrotation Zrotation
											JOINT RightHandRing4
											{
												OFFSET -6.145386 0.000000 0.000000
												CHANNELS 3 Xrotation Yrotation Zrotation
												End Site
												{
													OFFSET 3.671402 4.923981 -0.202372
												}
											}
										}
									}
								}
								JOINT RightHandPinky1
								{
									OFFSET -18.920792 -0.453171 -11.426712
									CHANNELS 3 Xrotation Yrotation Zrotation
									JOINT RightHandPinky2
									{
										OFFSET -4.919586 0.000000 0.000000
										CHANNELS 3 Xrotation Yrotation Zrotation
										JOINT RightHandPinky3
										{
											OFFSET -5.233047 0.000000 0.000000
											CHANNELS 3 Xrotation Yrotation Zrotation
											JOINT RightHandPinky4
											{
												OFFSET -5.571716 0.000000 0.000000
												CHANNELS 3 Xrotation Yrotation Zrotation
												End Site
												{
													OFFSET 3.459808 4.342407 -0.466164
												}
											}
										}
									}
								}
							}
						}
					}
				}
			}
		}
	}
	JOINT LeftUpLeg
	{
		OFFSET 19.899099 -7.885101 -3.429500
		CHANNELS 3 Xrotation Yrotation Zrotation
		JOINT LeftLeg
		{
			OFFSET 1.745560 -36.997807 10.304700
			CHANNELS 3 Xrotation Yrotation Zrotation
			JOINT LeftFoot
			{
				OFFSET -1.745558 -29.803308 -13.615400
				CHANNELS 3 Xrotation Yrotation Zrotation
				JOINT LeftToeBase
				{
					OFFSET 1.181900 -18.539904 15.226099
					CHANNELS 3 Xrotation Yrotation Zrotation
					JOINT LeftToe_End
					{
						OFFSET -0.863701 1.402801 16.534700
						CHANNELS 3 Xrotation Yrotation Zrotation
						End Site
						{
							OFFSET 0.000000 16.616566 0.000000
						}
					}
				}
			}
		}
	}
	JOINT RightUpLeg
	{
		OFFSET -19.899099 -7.885101 -3.429500
		CHANNELS 3 Xrotation Yrotation Zrotation
		JOINT RightLeg
		{
			OFFSET -1.745560 -36.997807 10.304700
			CHANNELS 3 Xrotation Yrotation Zrotation
			JOINT RightFoot
			{
				OFFSET 1.745558 -29.803308 -13.615400
				CHANNELS 3 Xrotation Yrotation Zrotation
				JOINT RightToeBase
				{
					OFFSET -1.181900 -18.539904 15.226099
					CHANNELS 3 Xrotation Yrotation Zrotation
					JOINT RightToe_End
					{
						OFFSET 0.863701 1.402801 16.534700
						CHANNELS 3 Xrotation Yrotation Zrotation
						End Site
						{
							OFFSET 0.000000 16.616566 0.000000
						}
					}
				}
			}
		}
	}
}
MOTION
Frames: 4
Frame Time: 0.033333
-12.042174 23.910553 -118.711136 -86.437731 5.915603 0.204411 7.596118 9.234027 -8.253619 21.608733 5.091726 0.007425 14.832369 6.815535 0.380325 -12.500044 -0.917278 -2.622839 19.696560 -0.847761 9.035184 0.000002 0.000000 -0.000000 -4.231673 -28.124028 -11.741952 -3.825336 -2.848903 -47.129900 0.000011 -36.016837 0.000010 -80.731593 -10.292216 10.871222 -4.151450 6.594817 6.216211 8.180436 14.137448 2.002162 2.297188 18.518352 16.454414 -0.000000 -0.000000 -0.000001 2.437523 7.715897 -33.156808 0.627171 2.639190 -26.731279 0.010727 0.354590 -3.462473 0.000001 0.000000 -0.000002 1.488267 6.251668 -34.182553 0.705449 2.788999 -28.384241 0.036337 0.652000 -6.375832 0.000002 -0.000001 0.000005 0.963648 5.656776 -23.168932 0.934128 3.175444 -32.777589 0.005365 0.250835 -2.448466 0.000001 -0.000000 0.000004 0.021060 2.986758 -15.258559 0.288567 1.817680 -18.040119 0.012365 0.380690 -3.717514 -0.000000 0.000001 -0.000001 5.557161 4.214681 21.163806 11.632031 23.088391 11.870015 0.000156 96.722350 -0.000118 -26.724659 -9.827292 -0.618772 51.406999 22.717959 -6.355410 43.229585 -18.107882 16.738082 8.820167 25.293340 -36.861127 0.000000 -0.000001 -0.000000 -1.457264 5.480086 10.799205 1.620392 -3.532555 49.271195 3.050170 -4.371678 69.794076 -0.000005 -0.000001 -0.000003 1.201575 -5.703291 62.383622 4.590676 -4.656693 89.180933 3.371348 -4.476523 73.956032 -0.000002 0.000000 -0.000008 -0.766280 -5.094989 67.974644 3.355119 -4.471819 73.747772 2.790484 -4.267448 66.347337 -0.000003 0.000002 0.000002 -2.992357 -4.641053 71.647209 1.858824 -3.724167 53.037409 3.320638 -4.461683 73.305046 0.000004 -0.000002 0.000007 -48.869631 0.711202 18.955418 41.646870 -1.549263 1.259177 18.314006 12.960088 -3.622020 2.937339 -0.000019 -0.000007 -0.000001 0.000000 -0.000001 -31.198737 -8.316298 -13.980197 25.387437 -0.866512 0.097807 38.923288 -12.780407 12.384409 9.557645 0.000002 -0.000006 0.000000 -0.000001 0.000002 
-12.436216 25.178421 -122.491852 -89.932664 2.344654 1.282150 5.419809 8.184949 -9.264187 17.043752 3.838134 -0.742822 9.852980 4.742573 -0.689429 -10.129148 -1.174747 -0.871830 9.619863 0.306673 5.663280 -0.000001 -0.000000 0.000000 -3.747125 -28.367924 -10.581860 11.800346 5.122431 -48.503280 0.000020 -50.797691 0.000002 -84.839207 -8.634805 22.771666 -2.660429 6.374230 6.016317 9.726865 14.249731 1.070074 1.999802 18.546474 16.846979 0.000001 -0.000002 -0.000005 2.115619 7.498317 -29.597669 0.551464 2.483312 -25.037257 0.003103 0.190556 -1.859889 -0.000001 0.000004 -0.000007 1.262491 5.978022 -30.817189 0.613550 2.611982 -26.433776 0.013149 0.392634 -3.834394 -0.000003 -0.000001 0.000001 0.808670 5.451553 -19.677519 0.801005 2.958824 -30.290093 0.000141 0.038193 -0.372811 -0.000002 -0.000000 0.000008 0.071764 3.005497 -11.854281 0.197599 1.510174 -14.907970 0.002600 0.174717 -1.705075 0.000000 0.000002 -0.000003 5.924825 1.921848 20.700184 20.655305 29.939540 8.985120 -0.000104 97.313619 0.000151 -25.615346 -13.877678 7.141528 53.616309 23.220258 -8.117255 45.257752 -16.259419 19.730060 10.421103 29.338989 -37.486336 0.000000 -0.000001 0.000001 -1.564330 5.242877 11.783733 1.655143 -3.562118 49.832917 3.086810 -4.384973 70.274129 -0.000001 0.000001 -0.000001 1.250241 -5.752268 63.192193 4.557774 -4.656125 88.775623 3.314026 -4.459691 73.220106 -0.000000 0.000001 -0.000004 -1.102508 -5.012765 68.618669 3.412138 -4.488012 74.477817 2.879634 -4.305285 67.540025 -0.000002 -0.000002 -0.000003 -3.467000 -4.511102 71.856698 1.889222 -3.746816 53.504061 3.510119 -4.514005 75.726574 -0.000000 0.000002 0.000001 -44.243978 -0.017244 22.102770 42.496471 -2.841424 2.648797 13.799501 14.933020 -4.763217 2.876057 0.000008 0.000006 0.000001 -0.000001 -0.000000 -32.824065 -7.395048 -14.763032 25.425371 -0.540154 -0.674127 43.613811 -13.042805 10.795982 9.592757 -0.000011 -0.000002 -0.000002 0.000000 0.000002 
-13.101830 26.275681 -125.717140 -91.839215 -1.311484 2.309225 3.262763 6.967695 -10.166435 11.347667 2.235682 -1.602831 4.236824 2.538395 -1.702241 -7.536456 -1.811594 1.229703 -3.943140 -0.541539 3.015334 0.000000 0.000001 -0.000000 -2.832562 -27.385080 -9.108960 26.826500 10.279705 -51.528416 0.000037 -62.459273 0.000001 -88.433888 -8.858334 30.765508 -1.231139 6.042692 5.749306 11.210117 14.332986 0.070059 1.728142 18.536824 17.209980 0.000003 -0.000000 -0.000004 1.993331 7.415550 -28.124356 0.562919 2.507637 -25.300387 0.004403 0.226909 -2.214818 0.000001 0.000000 -0.000002 1.173932 5.860921 -29.419459 0.609869 2.604599 -26.353329 0.009225 0.328557 -3.208128 -0.000002 -0.000002 0.000008 0.760856 5.414205 -18.143885 0.770599 2.906224 -29.695788 0.000030 0.016900 -0.164925 0.000000 -0.000001 0.000006 0.122846 3.218943 -10.613901 0.172522 1.412725 -13.925318 0.002810 0.181800 -1.774257 -0.000002 0.000000 0.000004 5.877024 0.118060 18.385315 26.779087 35.255326 9.374435 -0.000236 95.801026 0.000277 -27.670348 -15.271553 16.926314 55.706313 23.638716 -9.778952 46.995701 -14.340097 22.410725 12.036680 33.077466 -38.120915 0.000001 0.000000 0.000001 -1.658908 4.996099 12.738823 1.689990 -3.591200 50.391636 3.122427 -4.397531 70.739211 0.000003 -0.000001 0.000001 1.297094 -5.798086 63.959401 4.527922 -4.655375 88.407728 3.261476 -4.443546 72.543070 0.000001 0.000003 -0.000004 -1.416324 -4.945244 69.233844 3.466608 -4.502740 75.172871 2.964660 -4.339357 68.668038 -0.000000 -0.000001 -0.000005 -3.906905 -4.395806 72.064445 1.919450 -3.768939 53.965475 3.690060 -4.555880 78.001778 0.000001 -0.000000 0.000002 -37.084720 0.463024 26.059834 43.017716 -4.427401 3.975414 3.217187 14.380700 -4.095095 2.804244 0.000002 0.000007 -0.000000 0.000000 -0.000001 -35.704684 -5.682592 -14.957839 26.580019 -0.662677 -1.449095 45.800551 -13.455293 8.480010 8.490221 0.000006 0.000005 -0.000001 -0.000002 0.000000 
-13.940056 26.644958 -128.347351 -92.640198 -4.561897 3.024242 1.344903 6.001274 -10.762769 6.451497 0.866944 -2.209420 -0.405899 0.802987 -2.413941 -4.432735 -2.884516 3.281687 -15.758560 -2.554257 1.721396 -0.000000 0.000000 -0.000000 -1.769346 -25.118902 -7.402896 38.572390 10.367731 -53.131000 0.000025 -69.435362 0.000006 -89.969034 -10.580078 34.090499 -0.391284 5.758175 5.532023 12.084575 14.376080 -0.597693 1.580342 18.504162 17.410878 0.000002 -0.000000 0.000000 2.052479 7.471000 -28.679565 0.631999 2.648743 -26.836127 0.012963 0.389965 -3.808251 0.000002 0.000002 0.000001 1.205199 5.902656 -29.930633 0.668159 2.718914 -27.607970 0.015458 0.425842 -4.159235 -0.000002 -0.000000 0.000007 0.804597 5.514306 -18.563698 0.819648 2.990482 -30.649323 0.001610 0.137190 -1.339051 -0.000003 -0.000003 0.000004 0.173535 3.488591 -11.377972 0.195736 1.503182 -14.837147 0.009647 0.336619 -3.286622 -0.000001 0.000000 -0.000002 5.554992 -0.277056 15.805261 29.435486 41.769233 14.368640 0.000124 87.307829 -0.000127 -28.929970 -14.120955 27.893760 56.900421 23.853416 -10.726543 47.932447 -13.148419 23.871503 12.942804 35.177551 -38.392094 0.000001 0.000002 0.000001 -1.709734 4.836535 13.309255 1.711636 -3.608959 50.736267 3.143689 -4.404902 71.016407 -0.000003 -0.000003 -0.000001 1.324477 -5.824306 64.403643 4.511721 -4.654908 88.208253 3.232466 -4.434357 72.168284 -0.000001 0.000001 -0.000008 -1.593088 -4.911867 69.593364 3.498395 -4.511002 75.577307 3.013954 -4.358224 69.318197 0.000000 0.000002 -0.000005 -4.152317 -4.334603 72.191760 1.938050 -3.782368 54.247845 3.793475 -4.576553 79.300880 -0.000000 0.000003 -0.000001 -28.879133 5.628658 29.987502 39.704525 -4.673880 4.494850 -5.551540 8.986832 -4.626391 3.762498 0.000005 0.000012 -0.000000 0.000001 -0.000003 -38.343630 -3.964530 -14.773689 28.141976 -0.711513 -2.181268 44.834072 -13.584611 6.579520 6.693848 -0.000004 -0.000001 -0.000000 0.000002 -0.000000 
